<svg width="47" height="22" viewBox="0 0 47 22" fill="none" xmlns="http://www.w3.org/2000/svg">
<g id="Group 303">
<path id="Vector" d="M23.0517 21.0925C21.7888 21.1067 20.5371 20.8552 19.3776 20.3544C18.3097 19.8903 17.3451 19.2175 16.5404 18.3754C15.7358 17.5332 15.1072 16.5387 14.6917 15.4502C14.6347 15.3028 14.5813 15.1554 14.5326 15.0068V20.831H10.6376V18.9934C10.4038 19.3307 10.124 19.6336 9.80634 19.8932C9.31822 20.2862 8.75959 20.5823 8.16047 20.7656C7.53274 20.9564 6.87968 21.0506 6.22367 21.0449C5.2409 21.0396 4.26652 20.8635 3.34399 20.5243C2.42116 20.1987 1.55819 19.7233 0.789685 19.117L0 18.4882L2.09118 15.5346L2.96993 16.2049C3.47982 16.5995 4.04474 16.917 4.64667 17.1475C5.17776 17.35 5.74085 17.4555 6.30917 17.4589C6.7711 17.4589 7.14041 17.3638 7.39335 17.1748C7.47288 17.1252 7.53716 17.0545 7.57907 16.9706C7.62099 16.8867 7.63891 16.7929 7.63085 16.6994V16.6542C7.63085 16.5865 7.61779 16.5687 7.61066 16.5591C7.52239 16.4512 7.41388 16.3615 7.29123 16.2953C7.05824 16.163 6.81284 16.0539 6.55854 15.9696C6.22842 15.8579 5.88404 15.7509 5.53492 15.6534H5.51711C5.05636 15.5156 4.58967 15.3646 4.12655 15.2053C3.61163 15.0292 3.1206 14.7896 2.66474 14.4922C2.18263 14.1802 1.77254 13.7689 1.46181 13.2857C1.10681 12.7106 0.927284 12.0443 0.945247 11.3685V11.3234C0.939345 10.699 1.07325 10.0813 1.33712 9.5155C1.5938 8.96922 1.9681 8.4866 2.43318 8.10225C2.90706 7.71463 3.45088 7.42169 4.03511 7.23932C4.64947 7.04452 5.29067 6.94785 5.93511 6.95287C6.77794 6.95811 7.61497 7.0928 8.41697 7.35224C9.20012 7.59678 9.94728 7.94452 10.6388 8.38632V6.84114H0.957122V3.07565H19.5141C19.4067 2.83691 19.3497 2.57853 19.3466 2.3167C19.3436 2.05487 19.3946 1.79523 19.4964 1.55405C19.5983 1.31287 19.7488 1.09534 19.9386 0.915099C20.1284 0.734855 20.3533 0.595775 20.5992 0.506574C20.8452 0.417373 21.1069 0.379972 21.368 0.396714C21.629 0.413456 21.8838 0.48398 22.1164 0.603869C22.349 0.723759 22.5543 0.890429 22.7195 1.09344C22.8848 1.29645 23.0063 1.53142 23.0766 1.78364C23.1518 1.51635 23.2846 1.26878 23.4656 1.05834C23.6467 0.847899 23.8715 0.679693 24.1244 0.565543C24.3774 0.451392 24.6522 0.394067 24.9296 0.397596C25.207 0.401124 25.4803 0.465421 25.7302 0.585967C25.9802 0.706513 26.2007 0.880384 26.3763 1.09536C26.5519 1.31034 26.6784 1.5612 26.7468 1.83033C26.8152 2.09945 26.8239 2.3803 26.7723 2.65315C26.7206 2.92599 26.6099 3.18421 26.4479 3.40965C26.5584 3.45244 26.6676 3.4988 26.7745 3.54634C27.8467 4.01481 28.8153 4.6915 29.6245 5.53725C29.8917 5.81851 30.1397 6.11753 30.3667 6.43226V3.07565H34.2616V10.8158L41.6989 3.07565H46.9667L39.1624 11.0393L46.9275 20.8215H41.9887L36.4229 13.8052L34.2557 16.0017V20.825H30.3667V17.4007C30.1343 17.7253 29.8808 18.0342 29.6078 18.3254C28.7981 19.1827 27.8255 19.8697 26.7472 20.346C25.5819 20.8534 24.3224 21.1078 23.0517 21.0925ZM23.0517 6.57252C22.3548 6.56469 21.6641 6.70401 21.0246 6.9814C20.425 7.24108 19.8859 7.62278 19.4417 8.10225C18.9882 8.59959 18.6321 9.17777 18.3919 9.8067C18.1359 10.4843 18.0086 11.2039 18.0167 11.9284C18.0113 12.6592 18.1417 13.3847 18.4014 14.0678C18.6353 14.6981 18.9929 15.2752 19.4529 15.7651C19.913 16.255 20.4664 16.6479 21.0804 16.9205C21.7155 17.2033 22.4041 17.3456 23.0992 17.3377C23.7964 17.3455 24.4875 17.2062 25.1274 16.9288C25.724 16.6668 26.2607 16.2854 26.7044 15.808C27.1586 15.3075 27.5147 14.7261 27.7542 14.094C28.0128 13.4168 28.1429 12.6973 28.1377 11.9723C28.143 11.2415 28.0126 10.516 27.753 9.83285C27.5186 9.20282 27.1609 8.62597 26.7009 8.13612C26.2408 7.64627 25.6877 7.25329 25.074 6.98021C24.4377 6.6983 23.7474 6.55915 23.0517 6.57252ZM5.88879 10.5424C5.45654 10.5424 5.13236 10.6257 4.92692 10.7897C4.74286 10.9371 4.72742 11.0428 4.72742 11.1463V11.1914C4.72625 11.1997 4.72625 11.2081 4.72742 11.2164C4.82305 11.3248 4.93879 11.4136 5.06823 11.4779C5.31724 11.6093 5.57707 11.7191 5.84486 11.8059C6.2011 11.9248 6.56448 12.0437 6.93498 12.1542C7.38979 12.2909 7.85766 12.449 8.3196 12.6213C8.82912 12.8092 9.31211 13.0625 9.75647 13.3749C10.0883 13.6083 10.3847 13.8885 10.6364 14.2069V10.4343L9.64366 12.0793L8.72097 11.485C8.26677 11.1931 7.77917 10.9568 7.26866 10.7814C6.8249 10.6265 6.35873 10.5458 5.88879 10.5424ZM14.5338 8.96399C14.586 8.80352 14.6442 8.64544 14.706 8.48854C14.9341 7.91178 15.2189 7.35914 15.5562 6.83877H14.5338V8.96399Z" fill="#231F20"/>
<path id="Vector_2" d="M20.4213 2.31139C20.4213 2.14683 20.47 1.98597 20.5614 1.84915C20.6527 1.71232 20.7825 1.60568 20.9344 1.5427C21.0863 1.47973 21.2535 1.46325 21.4147 1.49536C21.5759 1.52746 21.7241 1.6067 21.8403 1.72306C21.9566 1.83942 22.0357 1.98768 22.0678 2.14907C22.0999 2.31047 22.0834 2.47776 22.0205 2.62979C21.9576 2.78182 21.851 2.91177 21.7144 3.00319C21.5777 3.09462 21.4169 3.14341 21.2525 3.14341C21.0321 3.14341 20.8206 3.05575 20.6648 2.89972C20.5089 2.74368 20.4213 2.53206 20.4213 2.31139ZM24.897 3.14341C25.0614 3.14341 25.2221 3.09462 25.3588 3.00319C25.4955 2.91177 25.602 2.78182 25.6649 2.62979C25.7278 2.47776 25.7443 2.31047 25.7122 2.14907C25.6802 1.98768 25.601 1.83942 25.4847 1.72306C25.3685 1.6067 25.2204 1.52746 25.0591 1.49536C24.8979 1.46325 24.7307 1.47973 24.5789 1.5427C24.427 1.60568 24.2971 1.71232 24.2058 1.84915C24.1145 1.98597 24.0657 2.14683 24.0657 2.31139C24.0657 2.53206 24.1533 2.74368 24.3092 2.89972C24.4651 3.05575 24.6765 3.14341 24.897 3.14341ZM9.14245 14.2473C8.77504 13.9891 8.37592 13.7794 7.95495 13.6233C7.51677 13.4605 7.07502 13.3107 6.62852 13.1776C6.24298 13.0587 5.87169 12.9399 5.51465 12.821C5.18724 12.7141 4.86944 12.5797 4.56465 12.4193C4.31231 12.2891 4.0883 12.1102 3.90559 11.8927C3.74293 11.6952 3.6558 11.4462 3.65978 11.1902V11.1451C3.65943 10.9135 3.71379 10.6851 3.81842 10.4785C3.92305 10.272 4.07499 10.0931 4.26184 9.95647C4.66321 9.63951 5.2055 9.48103 5.88871 9.48103C6.47729 9.48504 7.06113 9.58666 7.61652 9.78175C8.20714 9.98122 8.77168 10.251 9.29801 10.5852L10.0782 9.29086C9.46195 8.89432 8.79483 8.58324 8.09508 8.36613C7.39672 8.14027 6.66773 8.02361 5.93383 8.02024C5.4009 8.0161 4.87067 8.09633 4.36278 8.25796C3.90769 8.39876 3.48396 8.62596 3.11472 8.92715C2.76929 9.21192 2.49144 9.57001 2.30128 9.97549C2.10493 10.3978 2.00591 10.8588 2.01153 11.3246V11.3697C1.99378 11.84 2.1139 12.3053 2.3571 12.7081C2.58771 13.0649 2.89125 13.3687 3.24772 13.5995C3.62991 13.8479 4.04159 14.0476 4.47321 14.1938C4.92684 14.3523 5.3765 14.4973 5.82221 14.6289C6.19271 14.7335 6.55371 14.8452 6.90283 14.9641C7.22408 15.0705 7.53395 15.2087 7.82789 15.3765C8.07399 15.5145 8.29 15.7004 8.4632 15.9233C8.62159 16.1354 8.70512 16.3942 8.7007 16.659V16.7042C8.7091 16.9653 8.65238 17.2244 8.53565 17.458C8.41893 17.6917 8.24588 17.8926 8.03214 18.0425C7.58564 18.3698 7.01366 18.5334 6.31621 18.5334C5.61933 18.5306 4.92866 18.4022 4.27728 18.1543C3.5771 17.8878 2.92007 17.5193 2.32741 17.0607L1.45816 18.2874C2.1344 18.8198 2.89342 19.2374 3.7049 19.5235C4.51198 19.819 5.36422 19.9718 6.22358 19.9752C6.7709 19.9792 7.31559 19.899 7.83858 19.7375C8.30916 19.5958 8.74817 19.365 9.13176 19.0576C9.49382 18.7621 9.78959 18.3935 9.99982 17.976C10.2204 17.5258 10.3311 17.0296 10.3228 16.5283V16.4831C10.3384 16.0231 10.2266 15.5677 9.99982 15.1673C9.78104 14.8043 9.48903 14.491 9.14245 14.2473ZM28.8228 17.598C28.1103 18.3519 27.2538 18.955 26.3041 19.3714C25.2762 19.804 24.1726 20.0278 23.0575 20.0299C21.9424 20.0319 20.838 19.8121 19.8085 19.3833C18.8685 18.9751 18.0195 18.3829 17.3115 17.6415C16.6034 16.9002 16.0506 16.0246 15.6856 15.0663C15.3047 14.0808 15.1122 13.0325 15.1179 11.9759C15.1122 10.9182 15.3089 9.86918 15.6974 8.88554C16.0707 7.92967 16.6233 7.05416 17.3255 6.30628C17.5021 6.118 17.6884 5.93907 17.8836 5.77022H13.4661V19.7577H11.7051V5.77141H2.02341V4.14421H18.703V5.16403C19.0656 4.92403 19.4468 4.71337 19.843 4.53408C20.8709 4.10126 21.9745 3.87741 23.0897 3.87558C24.2049 3.87374 25.3093 4.09395 26.3386 4.52338C27.279 4.93063 28.1283 5.52235 28.8365 6.26361C29.5446 7.00487 30.0972 7.88063 30.4616 8.83919C30.8424 9.82466 31.0349 10.8729 31.0292 11.9296C31.0348 12.9871 30.8385 14.036 30.4509 15.0199C30.0766 15.9749 29.524 16.8498 28.8228 17.598ZM28.7444 14.4874C29.0531 13.6868 29.2082 12.8352 29.2016 11.9771C29.2074 11.116 29.0523 10.2614 28.7444 9.45726C28.46 8.69902 28.0279 8.0049 27.4732 7.41521C26.9185 6.82552 26.2523 6.35202 25.5133 6.0222C24.7391 5.67483 23.8988 5.49964 23.0504 5.50873C22.2036 5.4998 21.3646 5.67076 20.5887 6.01032C19.86 6.32873 19.2044 6.79357 18.6626 7.37602C18.1177 7.97061 17.6902 8.66308 17.4027 9.41685C17.095 10.2181 16.9407 11.07 16.9479 11.9284C16.9422 12.7894 17.0968 13.6439 17.4039 14.4482C17.6876 15.2059 18.1188 15.8997 18.6724 16.4894C19.2261 17.079 19.8912 17.5528 20.6291 17.8833C21.4033 18.2306 22.2436 18.4058 23.092 18.3967C23.9391 18.4057 24.7785 18.2347 25.5548 17.8951C26.2854 17.5764 26.9429 17.1112 27.4869 16.5283C28.0314 15.9318 28.4584 15.2378 28.7456 14.4827L28.7444 14.4874ZM31.427 4.14659V19.7577H33.1881V15.5643L36.5131 12.1958L42.5075 19.7577H44.7139L37.7385 10.9692L44.4241 4.14421H42.1465L33.1892 13.4676V4.14421L31.427 4.14659Z" fill="white"/>
<path id="Vector_3" d="M23.0181 17.8309C25.8789 17.8309 28.198 15.2047 28.198 11.9652C28.198 8.72561 25.8789 6.09943 23.0181 6.09943C20.1574 6.09943 17.8383 8.72561 17.8383 11.9652C17.8383 15.2047 20.1574 17.8309 23.0181 17.8309Z" fill="#231F20"/>
<path id="Vector_4" d="M21.8156 13.9132C22.4708 13.9132 23.0019 13.4629 23.0019 12.9076C23.0019 12.3522 22.4708 11.902 21.8156 11.902C21.1604 11.902 20.6293 12.3522 20.6293 12.9076C20.6293 13.4629 21.1604 13.9132 21.8156 13.9132Z" fill="white"/>
<path id="Vector_5" d="M24.5457 14.0478C25.2028 14.0478 25.7355 13.5555 25.7355 12.9483C25.7355 12.3411 25.2028 11.8489 24.5457 11.8489C23.8885 11.8489 23.3558 12.3411 23.3558 12.9483C23.3558 13.5555 23.8885 14.0478 24.5457 14.0478Z" fill="white"/>
<path id="Vector_6" d="M23.1136 15.2207C23.4206 15.2207 23.6694 14.9898 23.6694 14.7049C23.6694 14.42 23.4206 14.189 23.1136 14.189C22.8067 14.189 22.5579 14.42 22.5579 14.7049C22.5579 14.9898 22.8067 15.2207 23.1136 15.2207Z" fill="white"/>
<path id="Vector_7" d="M22.3794 8.29823C22.6922 8.29823 22.9458 8.04439 22.9458 7.73127C22.9458 7.41814 22.6922 7.16431 22.3794 7.16431C22.0665 7.16431 21.8129 7.41814 21.8129 7.73127C21.8129 8.04439 22.0665 8.29823 22.3794 8.29823Z" fill="white"/>
<path id="Vector_8" d="M26.1237 8.45772C26.3473 8.45772 26.5286 8.27626 26.5286 8.05241C26.5286 7.82856 26.3473 7.64709 26.1237 7.64709C25.9001 7.64709 25.7188 7.82856 25.7188 8.05241C25.7188 8.27626 25.9001 8.45772 26.1237 8.45772Z" fill="white"/>
<path id="Vector_9" d="M19.2662 9.13033C19.4899 9.13033 19.6712 8.94886 19.6712 8.72502C19.6712 8.50117 19.4899 8.3197 19.2662 8.3197C19.0426 8.3197 18.8613 8.50117 18.8613 8.72502C18.8613 8.94886 19.0426 9.13033 19.2662 9.13033Z" fill="white"/>
<path id="Vector_10" d="M26.7247 11.4173C26.67 11.2099 26.5511 11.0251 26.3851 10.8896C26.2152 10.752 26.0088 10.6673 25.7913 10.6459C23.3451 10.388 20.9701 11.0286 19.8942 11.3805C19.7074 11.4414 19.5468 11.5641 19.4389 11.7285C19.331 11.8929 19.2822 12.0891 19.3005 12.285C19.3208 12.4961 19.3525 12.706 19.3955 12.9138C19.5142 13.4914 19.8705 14.0679 20.0889 14.3686C20.1637 14.4718 20.2476 14.568 20.3395 14.6562C20.482 14.7929 20.7587 15.1543 20.8822 15.9637C21.0342 16.9514 21.6731 16.7256 21.8132 16.6626C21.8288 16.6553 21.8432 16.6457 21.8559 16.6341C21.9367 16.5544 22.3179 16.2145 22.7109 16.4201C23.104 16.6258 23.5612 16.3916 23.6609 16.3369C23.6722 16.3304 23.6826 16.3224 23.6918 16.3132C23.7476 16.2585 24.0077 16.0338 24.3711 16.2906L24.4007 16.312C24.4903 16.3665 24.592 16.3979 24.6967 16.4035C24.8014 16.409 24.9058 16.3885 25.0007 16.3438C25.0955 16.299 25.1778 16.2314 25.2401 16.1471C25.3024 16.0627 25.3429 15.9642 25.3579 15.8603C25.3709 15.77 25.3852 15.6642 25.3959 15.5382C25.4469 14.9736 25.9896 14.5635 26.4041 14.1701C26.6807 13.905 26.8173 13.4569 26.8791 13.1919C26.9083 13.0637 26.9198 12.9321 26.9135 12.8008C26.8954 12.3346 26.8321 11.8713 26.7247 11.4173ZM25.9872 13.7351C25.9302 13.7898 25.8685 13.8468 25.8044 13.9062C25.384 14.2913 24.8627 14.7715 24.7986 15.4799C24.7867 15.6047 24.7736 15.7177 24.757 15.8187C24.7397 15.817 24.7232 15.8104 24.7095 15.7997C24.5117 15.6529 24.2728 15.5723 24.0267 15.5691C23.7758 15.5709 23.5333 15.6595 23.3403 15.8199C23.3303 15.8292 23.3186 15.8365 23.3059 15.8413C23.2314 15.877 23.1508 15.898 23.0684 15.9031C23.041 15.9047 23.0136 15.8994 22.9888 15.8876C22.8234 15.8002 22.6391 15.7546 22.4521 15.7545C22.1845 15.7592 21.9241 15.8418 21.7028 15.9922C21.6821 16.0053 21.6585 16.013 21.6341 16.0148C21.6097 16.0165 21.5852 16.0122 21.5629 16.0022C21.5406 15.9922 21.5211 15.9768 21.5061 15.9575C21.4911 15.9381 21.4812 15.9153 21.4771 15.8912V15.8674C21.3394 14.9724 21.0199 14.4958 20.7919 14.2604C20.677 14.1432 20.5732 14.0155 20.482 13.8789C20.2546 13.5488 20.0862 13.1816 19.9845 12.7937C19.946 12.6068 19.9174 12.4179 19.899 12.2279C19.8928 12.1668 19.9079 12.1055 19.9416 12.0542C19.9754 12.0029 20.0257 11.9648 20.0842 11.9462C20.9558 11.6598 22.7062 11.1808 24.6299 11.1808C25.0267 11.1805 25.4231 11.2024 25.8174 11.2461C25.8288 11.2478 25.8399 11.2506 25.8507 11.2545C25.9237 11.2787 25.9897 11.3204 26.0431 11.3759C26.0965 11.4314 26.1356 11.499 26.1571 11.573C26.2512 11.9844 26.3053 12.404 26.3186 12.8258C26.3223 12.9024 26.3159 12.9791 26.2996 13.054C26.2378 13.2905 26.1286 13.5936 25.9872 13.7291V13.7351Z" fill="white"/>
<path id="Vector_11" d="M26.6189 10.0244C26.614 9.85381 26.5966 9.68377 26.5666 9.51572C26.4835 9.05811 26.316 8.75858 26.0548 8.6005C25.883 8.48895 25.6836 8.42761 25.4789 8.4234C25.3467 8.43429 25.2159 8.45777 25.0882 8.49353C24.7568 8.58734 24.4414 8.73038 24.1524 8.91786C24.0544 8.98176 23.9476 9.03101 23.8354 9.06405C23.6929 8.96897 23.4292 8.79424 23.0944 8.58861C22.925 8.48173 22.7294 8.42374 22.5291 8.42102C22.429 8.42109 22.3297 8.43879 22.2358 8.47332C22.1198 8.51958 22.0147 8.58926 21.9268 8.67801C21.839 8.76676 21.7703 8.87269 21.7252 8.98917L21.6349 9.18529C21.5015 9.16294 21.3698 9.13157 21.2407 9.09139C20.9682 9.00497 20.6846 8.95853 20.3987 8.95351C19.8976 8.95351 19.6554 9.13656 19.5758 9.21263C19.5344 9.25397 19.4999 9.30173 19.4737 9.35407C19.1317 10.0446 19.1732 10.5641 19.2908 10.9777C19.3151 11.0358 19.3607 11.0825 19.4181 11.1081C19.4756 11.1337 19.5407 11.1365 19.6002 11.1157C19.6596 11.0949 19.7088 11.0522 19.7379 10.9963C19.7669 10.9404 19.7735 10.8755 19.7563 10.8149C19.6435 10.3561 19.6767 10.1136 19.881 9.67856C19.9005 9.63706 19.9284 9.60008 19.9629 9.56999C19.9975 9.5399 20.0379 9.51737 20.0817 9.50384C20.2456 9.45273 20.5567 9.41945 21.0958 9.57991C21.9888 9.84496 21.9983 9.60843 21.9983 9.60843L22.1942 9.18648C22.1942 9.18648 22.3415 8.73481 22.8319 9.02958C23.3224 9.32436 23.656 9.5597 23.656 9.5597C23.656 9.5597 23.8722 9.68807 24.4208 9.34338C24.9694 8.99868 25.4824 8.84297 25.79 9.02958C25.8714 9.09226 25.9376 9.17244 25.9839 9.2642C26.0301 9.35596 26.0552 9.45695 26.0572 9.5597C26.0738 9.91034 26.0869 10.1112 26.0952 10.2253C26.0975 10.264 26.1086 10.3017 26.1277 10.3354C26.1468 10.3692 26.1733 10.3981 26.2053 10.42C26.2373 10.4419 26.2738 10.4562 26.3121 10.4618C26.3505 10.4674 26.3896 10.4642 26.4265 10.4523C26.5357 10.4143 26.6224 10.3002 26.6129 10.0958V10.0625L26.6189 10.0244Z" fill="white"/>
</g>
</svg>
